<?xml version="1.0" standalone="no"?>
<!DOCTYPE svg PUBLIC "-//W3C//DTD SVG 20010904//EN"
 "http://www.w3.org/TR/2001/REC-SVG-20010904/DTD/svg10.dtd">
<svg version="1.0" xmlns="http://www.w3.org/2000/svg"
 width="1024.000000pt" height="1024.000000pt" viewBox="0 0 1024.000000 1024.000000"
 preserveAspectRatio="xMidYMid meet">
<metadata>
Created by potrace 1.11, written by Peter Selinger 2001-2013
</metadata>
<g transform="translate(0.000000,1024.000000) scale(0.100000,-0.100000)"
fill="#000000" stroke="none">
<path d="M0 5120 l0 -5120 2645 0 2645 0 0 1065 0 1065 1005 0 1005 0 0 -1065
0 -1065 1470 0 1470 0 0 5120 0 5120 -5120 0 -5120 0 0 -5120z m6660 4410
c585 -37 988 -140 1475 -381 295 -145 488 -281 701 -494 155 -154 220 -232
317 -381 153 -234 281 -557 348 -879 30 -143 37 -510 15 -725 -37 -348 -108
-589 -267 -901 -112 -220 -272 -434 -469 -630 -117 -116 -232 -208 -455 -366
-298 -211 -550 -409 -688 -542 -203 -196 -319 -367 -396 -584 -60 -170 -71
-256 -71 -541 l0 -256 -860 0 -860 0 0 303 c0 436 36 702 136 1008 143 435
506 921 939 1255 502 389 667 541 806 748 163 242 206 408 196 753 -12 424
-117 690 -349 890 -135 116 -306 193 -508 229 -130 24 -392 24 -520 0 -395
-71 -715 -314 -898 -681 -110 -220 -187 -547 -199 -837 l-6 -148 -939 0 c-744
0 -938 3 -938 13 1 59 23 327 36 427 93 745 397 1387 888 1875 271 269 593
478 961 622 343 135 603 192 1020 226 96 8 434 6 585 -3z"/>
</g>
</svg>
