<?xml version="1.0" standalone="no"?>
<!DOCTYPE svg PUBLIC "-//W3C//DTD SVG 20010904//EN"
 "http://www.w3.org/TR/2001/REC-SVG-20010904/DTD/svg10.dtd">
<svg version="1.0" xmlns="http://www.w3.org/2000/svg"
 width="1024.000000pt" height="1024.000000pt" viewBox="0 0 1024.000000 1024.000000"
 preserveAspectRatio="xMidYMid meet">
<metadata>
Created by potrace 1.11, written by Peter Selinger 2001-2013
</metadata>
<g transform="translate(0.000000,1024.000000) scale(0.100000,-0.100000)"
fill="#000000" stroke="none">
<path d="M2495 10229 c-419 -20 -771 -73 -1010 -150 -108 -36 -318 -136 -434
-208 -205 -127 -388 -290 -538 -478 -280 -352 -408 -687 -467 -1223 -41 -366
-41 -403 -41 -3100 0 -2630 2 -2773 35 -2960 6 -30 19 -118 31 -195 25 -166
85 -409 128 -517 246 -618 781 -1100 1402 -1262 245 -64 464 -95 839 -117 108
-6 738 -13 1518 -16 l1332 -5 0 1066 0 1066 1005 0 1005 0 0 -1060 0 -1060
138 0 c544 0 992 55 1312 160 613 201 1115 702 1318 1316 62 186 88 311 142
684 27 189 31 653 27 3130 -3 1890 -7 2567 -16 2660 -29 306 -87 621 -145 795
-66 196 -184 420 -313 593 -78 104 -279 310 -378 387 -426 333 -844 457 -1660
495 -250 11 -4993 11 -5230 -1z m4165 -699 c585 -37 988 -140 1475 -381 295
-145 488 -281 701 -494 155 -154 220 -232 317 -381 153 -234 281 -557 348
-879 30 -143 37 -510 15 -725 -37 -348 -108 -589 -267 -901 -112 -220 -272
-434 -469 -630 -117 -116 -232 -208 -455 -366 -298 -211 -550 -409 -688 -542
-203 -196 -319 -367 -396 -584 -60 -170 -71 -256 -71 -541 l0 -256 -860 0
-860 0 0 303 c0 436 36 702 136 1008 143 435 506 921 939 1255 502 389 667
541 806 748 163 242 206 408 196 753 -12 424 -117 690 -349 890 -135 116 -306
193 -508 229 -130 24 -392 24 -520 0 -395 -71 -715 -314 -898 -681 -110 -220
-187 -547 -199 -837 l-6 -148 -939 0 c-744 0 -938 3 -938 13 1 59 23 327 36
427 93 745 397 1387 888 1875 271 269 593 478 961 622 343 135 603 192 1020
226 96 8 434 6 585 -3z"/>
</g>
</svg>
